<svg width="15" height="16" viewBox="0 0 15 16" fill="none" xmlns="http://www.w3.org/2000/svg">
<path fill-rule="evenodd" clip-rule="evenodd" d="M0 7.65466C0 7.24045 0.530189 6.90466 1.18421 6.90466H13.8158C14.4698 6.90466 15 7.24045 15 7.65466C15 8.06888 14.4698 8.40466 13.8158 8.40466H1.18421C0.530189 8.40466 0 8.06888 0 7.65466Z" fill="#171717"/>
<path fill-rule="evenodd" clip-rule="evenodd" d="M7.13794 15.5C6.72373 15.5 6.38794 14.8877 6.38794 14.1324L6.38794 1.36765C6.38794 0.612317 6.72373 -1.46777e-08 7.13794 -3.27835e-08C7.55215 -5.08894e-08 7.88794 0.612317 7.88794 1.36765L7.88794 14.1324C7.88794 14.8877 7.55215 15.5 7.13794 15.5Z" fill="#171717"/>
</svg>
