<svg width="9" height="10" viewBox="0 0 9 10" fill="none" xmlns="http://www.w3.org/2000/svg">
<path d="M6.32912 3.64331C7.04899 4.09323 7.40892 4.31819 7.53235 4.6062C7.64015 4.85774 7.64015 5.14248 7.53235 5.39402C7.40892 5.68203 7.04899 5.90699 6.32912 6.35691L2.948 8.47011C2.14902 8.96947 1.74954 9.21915 1.41987 9.19265C1.1325 9.16954 0.869092 9.02355 0.697199 8.79211C0.5 8.5266 0.5 8.0555 0.5 7.11331V2.88691C0.5 1.94472 0.5 1.47362 0.697199 1.20811C0.869092 0.976672 1.1325 0.830676 1.41987 0.807574C1.74954 0.781072 2.14902 1.03075 2.948 1.53011L6.32912 3.64331Z" stroke="#575757" stroke-linejoin="round"/>
</svg>
