<svg width="23" height="24" viewBox="0 0 23 24" fill="none" xmlns="http://www.w3.org/2000/svg">
<g clip-path="url(#clip0_0_398)">
<path fill-rule="evenodd" clip-rule="evenodd" d="M9.48028 4.0757C8.8702 4.0757 8.37563 4.57027 8.37563 5.18035V6.56901C8.37563 6.93506 8.07889 7.2318 7.71284 7.2318C7.34679 7.2318 7.05005 6.93506 7.05005 6.56901V5.18035C7.05005 3.83817 8.1381 2.75012 9.48028 2.75012H13.52C14.8622 2.75012 15.9503 3.83817 15.9503 5.18035V6.56901C15.9503 6.93506 15.6535 7.2318 15.2875 7.2318C14.9214 7.2318 14.6247 6.93506 14.6247 6.56901V5.18035C14.6247 4.57027 14.1301 4.0757 13.52 4.0757H9.48028Z" fill="#171717"/>
<path fill-rule="evenodd" clip-rule="evenodd" d="M2.00024 6.56904C2.00024 6.20299 2.29699 5.90625 2.66303 5.90625H20.3372C20.7033 5.90625 21 6.20299 21 6.56904C21 6.93509 20.7033 7.23183 20.3372 7.23183H2.66303C2.29699 7.23183 2.00024 6.93509 2.00024 6.56904Z" fill="#171717"/>
<path fill-rule="evenodd" clip-rule="evenodd" d="M5.8506 7.23183V16.5801C5.8506 18.7032 7.5717 20.4243 9.69478 20.4243H13.3053C15.4283 20.4243 17.1494 18.7032 17.1494 16.5801V7.23183H5.8506ZM4.52502 6.65741C4.52502 6.24256 4.86133 5.90625 5.27619 5.90625H17.7239C18.1387 5.90625 18.475 6.24256 18.475 6.65741V16.5801C18.475 19.4353 16.1604 21.7499 13.3053 21.7499H9.69478C6.83961 21.7499 4.52502 19.4353 4.52502 16.5801V6.65741Z" fill="#171717"/>
<path fill-rule="evenodd" clip-rule="evenodd" d="M8.97529 10.3247C9.34134 10.3247 9.63808 10.6214 9.63808 10.9875V16.0373C9.63808 16.4033 9.34134 16.7001 8.97529 16.7001C8.60924 16.7001 8.3125 16.4033 8.3125 16.0373V10.9875C8.3125 10.6214 8.60924 10.3247 8.97529 10.3247Z" fill="#171717"/>
<path fill-rule="evenodd" clip-rule="evenodd" d="M14.025 10.3247C14.391 10.3247 14.6878 10.6214 14.6878 10.9875V16.0373C14.6878 16.4033 14.391 16.7001 14.025 16.7001C13.6589 16.7001 13.3622 16.4033 13.3622 16.0373V10.9875C13.3622 10.6214 13.6589 10.3247 14.025 10.3247Z" fill="#171717"/>
</g>
<defs>
<clipPath id="clip0_0_398">
<rect width="23" height="23" fill="white" transform="translate(0 0.5)"/>
</clipPath>
</defs>
</svg>
